<?xml version="1.0" encoding="UTF-8" standalone="no"?>
<!-- Created with Inkscape (http://www.inkscape.org/) -->

<svg
   xmlns:dc="http://purl.org/dc/elements/1.1/"
   xmlns:cc="http://creativecommons.org/ns#"
   xmlns:rdf="http://www.w3.org/1999/02/22-rdf-syntax-ns#"
   xmlns:svg="http://www.w3.org/2000/svg"
   xmlns="http://www.w3.org/2000/svg"
   xmlns:sodipodi="http://sodipodi.sourceforge.net/DTD/sodipodi-0.dtd"
   xmlns:inkscape="http://www.inkscape.org/namespaces/inkscape"
   width="3.25in"
   height="11in"
   viewBox="0 0 292.5 990"
   id="svg4420"
   version="1.1"
   inkscape:version="0.92.2 (5c3e80d, 2017-08-06)"
   sodipodi:docname="sgrna_domains.svg">
  <defs
     id="defs4422">
    <clipPath
       clipPathUnits="userSpaceOnUse"
       id="clipPath4205">
      <rect
         style="display:inline;opacity:1;fill:#f4f8ea;fill-opacity:1;stroke:none;stroke-width:0.99999994;stroke-linecap:butt;stroke-linejoin:miter;stroke-miterlimit:4;stroke-dasharray:none;stroke-opacity:1"
         id="rect4207"
         width="17.412001"
         height="25.238001"
         x="459.22617"
         y="-261.8093"
         transform="rotate(-45)" />
    </clipPath>
    <clipPath
       clipPathUnits="userSpaceOnUse"
       id="clipPath4215">
      <rect
         style="display:inline;opacity:1;fill:#fde8ed;fill-opacity:1;stroke:none;stroke-width:0.99999994;stroke-linecap:butt;stroke-linejoin:miter;stroke-miterlimit:4;stroke-dasharray:none;stroke-opacity:1"
         id="rect4217"
         width="14.621"
         height="17.556"
         x="170.11223"
         y="-488.26807" />
    </clipPath>
    <clipPath
       clipPathUnits="userSpaceOnUse"
       id="clipPath4225">
      <rect
         style="display:inline;opacity:1;fill:#e8f4fa;fill-opacity:1;stroke:none;stroke-width:1;stroke-linecap:butt;stroke-linejoin:miter;stroke-miterlimit:4;stroke-dasharray:none;stroke-opacity:1"
         id="rect4227"
         width="11.5"
         height="22.888"
         x="199.58942"
         y="-493.60022" />
    </clipPath>
    <clipPath
       id="clipPath2911"
       clipPathUnits="userSpaceOnUse">
      <path
         inkscape:connector-curvature="0"
         id="path2913"
         d="m 64.488984,276.63248 h 95.850706 v 13.36973 H 64.488984 Z"
         style="opacity:0.45199998;fill:#90bd31;fill-opacity:1;fill-rule:nonzero;stroke:none;stroke-width:0.99999982;stroke-linejoin:round;stroke-miterlimit:4;stroke-dasharray:none;stroke-opacity:1" />
    </clipPath>
    <clipPath
       id="clipPath2915"
       clipPathUnits="userSpaceOnUse">
      <path
         id="path2917"
         d="m 67.856579,396.74341 h 95.850701 v 13.36973 H 67.856579 Z"
         style="opacity:0.45199998;fill:#90bd31;fill-opacity:1;fill-rule:nonzero;stroke:none;stroke-width:0.9999997;stroke-linejoin:round;stroke-miterlimit:4;stroke-dasharray:none;stroke-opacity:1"
         inkscape:connector-curvature="0" />
    </clipPath>
    <clipPath
       clipPathUnits="userSpaceOnUse"
       id="clipPath4205-3-34">
      <rect
         style="display:inline;opacity:1;fill:#f4f8ea;fill-opacity:1;stroke:none;stroke-width:0.99999994;stroke-linecap:butt;stroke-linejoin:miter;stroke-miterlimit:4;stroke-dasharray:none;stroke-opacity:1"
         id="rect4207-5-63"
         width="17.412001"
         height="25.238001"
         x="459.22617"
         y="-261.8093"
         transform="rotate(-45)" />
    </clipPath>
    <clipPath
       clipPathUnits="userSpaceOnUse"
       id="clipPath4215-7-6">
      <rect
         style="display:inline;opacity:1;fill:#fde8ed;fill-opacity:1;stroke:none;stroke-width:0.99999994;stroke-linecap:butt;stroke-linejoin:miter;stroke-miterlimit:4;stroke-dasharray:none;stroke-opacity:1"
         id="rect4217-5-3"
         width="14.621"
         height="17.556"
         x="170.11223"
         y="-488.26807" />
    </clipPath>
    <clipPath
       clipPathUnits="userSpaceOnUse"
       id="clipPath4225-3-34">
      <rect
         style="display:inline;opacity:1;fill:#e8f4fa;fill-opacity:1;stroke:none;stroke-width:1;stroke-linecap:butt;stroke-linejoin:miter;stroke-miterlimit:4;stroke-dasharray:none;stroke-opacity:1"
         id="rect4227-6-4"
         width="11.5"
         height="22.888"
         x="199.58942"
         y="-493.60022" />
    </clipPath>
    <marker
       inkscape:stockid="Arrow1Mend"
       orient="auto"
       refY="0"
       refX="0"
       id="marker4482-1"
       style="overflow:visible"
       inkscape:isstock="true"
       inkscape:collect="always">
      <path
         inkscape:connector-curvature="0"
         id="path4480-1"
         d="M 0,0 5,-5 -12.5,0 5,5 Z"
         style="fill:#000000;fill-opacity:1;fill-rule:evenodd;stroke:#000000;stroke-width:1.00000003pt;stroke-opacity:1"
         transform="matrix(-0.4,0,0,-0.4,-4,0)" />
    </marker>
    <marker
       inkscape:isstock="true"
       style="overflow:visible"
       id="marker5359"
       refX="0"
       refY="0"
       orient="auto"
       inkscape:stockid="Arrow1Mend"
       inkscape:collect="always">
      <path
         transform="matrix(-0.4,0,0,-0.4,-4,0)"
         style="fill:#000000;fill-opacity:1;fill-rule:evenodd;stroke:#000000;stroke-width:1.00000003pt;stroke-opacity:1"
         d="M 0,0 5,-5 -12.5,0 5,5 Z"
         id="path5357"
         inkscape:connector-curvature="0" />
    </marker>
    <marker
       inkscape:stockid="Arrow1Mend"
       orient="auto"
       refY="0"
       refX="0"
       id="marker5411"
       style="overflow:visible"
       inkscape:isstock="true">
      <path
         inkscape:connector-curvature="0"
         id="path5409"
         d="M 0,0 5,-5 -12.5,0 5,5 Z"
         style="fill:#000000;fill-opacity:1;fill-rule:evenodd;stroke:#000000;stroke-width:1.00000003pt;stroke-opacity:1"
         transform="matrix(-0.4,0,0,-0.4,-4,0)" />
    </marker>
    <clipPath
       clipPathUnits="userSpaceOnUse"
       id="clipPath4205-3-34-3">
      <rect
         style="display:inline;opacity:1;fill:#f4f8ea;fill-opacity:1;stroke:none;stroke-width:0.99999994;stroke-linecap:butt;stroke-linejoin:miter;stroke-miterlimit:4;stroke-dasharray:none;stroke-opacity:1"
         id="rect4207-5-63-6"
         width="17.412001"
         height="25.238001"
         x="459.22617"
         y="-261.8093"
         transform="rotate(-45)" />
    </clipPath>
    <clipPath
       clipPathUnits="userSpaceOnUse"
       id="clipPath4215-7-6-7">
      <rect
         style="display:inline;opacity:1;fill:#fde8ed;fill-opacity:1;stroke:none;stroke-width:0.99999994;stroke-linecap:butt;stroke-linejoin:miter;stroke-miterlimit:4;stroke-dasharray:none;stroke-opacity:1"
         id="rect4217-5-3-5"
         width="14.621"
         height="17.556"
         x="170.11223"
         y="-488.26807" />
    </clipPath>
    <clipPath
       clipPathUnits="userSpaceOnUse"
       id="clipPath4225-3-34-3">
      <rect
         style="display:inline;opacity:1;fill:#e8f4fa;fill-opacity:1;stroke:none;stroke-width:1;stroke-linecap:butt;stroke-linejoin:miter;stroke-miterlimit:4;stroke-dasharray:none;stroke-opacity:1"
         id="rect4227-6-4-5"
         width="11.5"
         height="22.888"
         x="199.58942"
         y="-493.60022" />
    </clipPath>
  </defs>
  <sodipodi:namedview
     id="base"
     pagecolor="#ffffff"
     bordercolor="#666666"
     borderopacity="1.0"
     inkscape:pageopacity="0.0"
     inkscape:pageshadow="2"
     inkscape:zoom="0.35"
     inkscape:cx="375"
     inkscape:cy="520"
     inkscape:document-units="px"
     inkscape:current-layer="layer1"
     showgrid="false"
     fit-margin-top="1"
     fit-margin-left="1"
     fit-margin-right="1"
     fit-margin-bottom="1"
     units="in" />
  <metadata
     id="metadata4425">
    <rdf:RDF>
      <cc:Work
         rdf:about="">
        <dc:format>image/svg+xml</dc:format>
        <dc:type
           rdf:resource="http://purl.org/dc/dcmitype/StillImage" />
        <dc:title></dc:title>
      </cc:Work>
    </rdf:RDF>
  </metadata>
  <g
     inkscape:label="Layer 1"
     inkscape:groupmode="layer"
     id="layer1"
     transform="translate(-23.792508,732.61162)">
    <text
       xml:space="preserve"
       style="color:#000000;font-style:normal;font-variant:normal;font-weight:normal;font-stretch:normal;line-height:0%;font-family:'Liberation Sans';-inkscape-font-specification:'Liberation Sans, Normal';text-indent:0;text-align:start;text-decoration:none;text-decoration-line:none;letter-spacing:0px;word-spacing:0px;text-transform:none;writing-mode:lr-tb;direction:ltr;baseline-shift:baseline;text-anchor:start;display:inline;overflow:visible;visibility:visible;fill:#000000;fill-opacity:1;fill-rule:nonzero;stroke:none;stroke-width:1px;stroke-linecap:butt;stroke-linejoin:miter;stroke-opacity:1;marker:none;enable-background:accumulate"
       x="36.42857"
       y="12.362203"
       id="text4468"><tspan
         sodipodi:role="line"
         id="tspan4470"
         x="36.42857"
         y="12.362203"
         style="font-size:15px;line-height:1.10000002"> </tspan></text>
    <text
       xml:space="preserve"
       style="color:#000000;font-style:normal;font-variant:normal;font-weight:300;font-stretch:normal;line-height:0%;font-family:Roboto;-inkscape-font-specification:'Roboto, Light';text-indent:0;text-align:start;text-decoration:none;text-decoration-line:none;letter-spacing:0px;word-spacing:0px;text-transform:none;writing-mode:lr-tb;direction:ltr;baseline-shift:baseline;text-anchor:start;display:inline;overflow:visible;visibility:visible;fill:#002049;fill-opacity:1;fill-rule:nonzero;stroke:none;stroke-width:1px;stroke-linecap:butt;stroke-linejoin:miter;stroke-opacity:1;marker:none;enable-background:accumulate"
       x="83.059128"
       y="-656.31207"
       id="text4464-3-6-9"><tspan
         sodipodi:role="line"
         id="tspan4466-2-2-7"
         x="83.059128"
         y="-656.31207"
         style="font-style:normal;font-variant:normal;font-weight:normal;font-stretch:normal;font-size:12.5px;line-height:1.10000002;font-family:'Liberation Sans';-inkscape-font-specification:'Liberation Sans';fill:#002049">nexus</tspan></text>
    <text
       xml:space="preserve"
       style="color:#000000;font-style:normal;font-variant:normal;font-weight:normal;font-stretch:normal;line-height:0%;font-family:'Liberation Sans';-inkscape-font-specification:'Liberation Sans, Normal';text-indent:0;text-align:end;text-decoration:none;text-decoration-line:none;letter-spacing:0px;word-spacing:0px;text-transform:none;writing-mode:lr-tb;direction:ltr;baseline-shift:baseline;text-anchor:end;display:inline;overflow:visible;visibility:visible;fill:#178ccb;fill-opacity:1;fill-rule:nonzero;stroke:none;stroke-width:1px;stroke-linecap:butt;stroke-linejoin:miter;stroke-opacity:1;marker:none;enable-background:accumulate"
       x="60.842419"
       y="-701.15137"
       id="text4476-4-9-2"><tspan
         style="font-size:12.5px;line-height:1.10000002"
         sodipodi:role="line"
         x="60.842419"
         y="-701.15137"
         id="tspan4480-3-1-5">upper</tspan><tspan
         style="font-size:12.5px;line-height:1.10000002"
         sodipodi:role="line"
         x="60.842419"
         y="-687.40137"
         id="tspan4484-9-2-8">stem</tspan></text>
    <path
       style="fill:none;fill-rule:evenodd;stroke:#178ccb;stroke-width:1px;stroke-linecap:butt;stroke-linejoin:miter;stroke-opacity:1"
       d="m 62.501091,-698.09493 11.02678,-8.30356"
       id="path4540-7-9"
       inkscape:connector-curvature="0"
       sodipodi:nodetypes="cc" />
    <text
       xml:space="preserve"
       style="color:#000000;font-style:normal;font-variant:normal;font-weight:normal;font-stretch:normal;line-height:0%;font-family:'Liberation Sans';-inkscape-font-specification:'Liberation Sans, Normal';text-indent:0;text-align:start;text-decoration:none;text-decoration-line:none;letter-spacing:0px;word-spacing:0px;text-transform:none;writing-mode:lr-tb;direction:ltr;baseline-shift:baseline;text-anchor:start;display:inline;overflow:visible;visibility:visible;fill:#18a3ac;fill-opacity:1;fill-rule:nonzero;stroke:none;stroke-width:1px;stroke-linecap:butt;stroke-linejoin:miter;stroke-opacity:1;marker:none;enable-background:accumulate"
       x="109.35551"
       y="-707.63599"
       id="text4472-9-9-2"><tspan
         sodipodi:role="line"
         id="tspan4474-5-3-4"
         x="109.35551"
         y="-707.63599"
         style="font-size:12.5px;line-height:1.10000002">hairpin</tspan></text>
    <path
       style="fill:none;fill-rule:evenodd;stroke:#18a3ac;stroke-width:1px;stroke-linecap:butt;stroke-linejoin:miter;stroke-opacity:1"
       d="m 128.04315,-704.71899 1.60714,11.07143"
       id="path4557-6-7"
       inkscape:connector-curvature="0" />
    <path
       style="fill:none;fill-rule:evenodd;stroke:#002049;stroke-width:1px;stroke-linecap:butt;stroke-linejoin:miter;stroke-opacity:1"
       d="m 100.89395,-666.21993 0.71428,-7.58928"
       id="path4559-0-6"
       inkscape:connector-curvature="0" />
    <path
       id="path6485-6-5"
       style="display:inline;opacity:1;fill:none;fill-opacity:1;stroke:#f48024;stroke-width:2.5003125;stroke-linecap:butt;stroke-miterlimit:4;stroke-dasharray:none;stroke-opacity:1"
       d="m 156.70301,-677.11146 -11.57671,0.004 0.004,-20.28751 c 0,-1.38071 -1.11929,-2.5 -2.5,-2.5 -1.38071,0 -2.5,1.11929 -2.5,2.5 l 0.004,20.28751 -7.79906,-1.1e-4 0.004,-13.88751 c 0,-1.38071 -1.11929,-2.5 -2.5,-2.5 -1.38071,0 -2.5,1.11929 -2.5,2.5 l 0.004,13.88751 -22.82334,-7.9e-4 0.002,-3.78321 c 0.85853,-0.36234 1.46093,-1.2127 1.46093,-2.20312 0,-1.31969 -1.06898,-2.38867 -2.38867,-2.38867 -0.15028,0 -0.29686,0.0184 -0.43945,0.0449 l -0.48633,-1.17969 c -0.39629,-0.95668 -1.3168,-1.53766 -2.29102,-1.54492 -0.32474,-0.002 -0.655709,0.0593 -0.974609,0.19141 -1.2756,0.52836 -1.88187,1.99001 -1.35351,3.26562 0.52868,1.27275 1.47656,2.57955 1.47656,4.15469 l 0.004,3.44297 -8.62123,1.8e-4 0.004,-18.14649 c 0.71876,-0.31093 1.37269,-0.75417 1.92773,-1.30664 2.44015,-2.44067 2.44015,-6.39722 0,-8.83789 -1.75797,-1.75686 -4.38983,-2.30516 -6.70312,-1.39648 -3.22568,-3.22718 -8.1201,-8.12286 -10.05273,-10.05664 -0.48816,-0.48816 -1.12777,-0.73243 -1.76758,-0.73243 -0.63981,0 -1.27942,0.24427 -1.76758,0.73243 -0.97631,0.9763 -0.97631,2.55884 0,3.53515 1.93469,1.93354 6.83388,6.83148 10.06055,10.05664 -0.90845,2.31104 -0.36259,4.94068 1.39062,6.69922 0.55057,0.55016 1.19906,0.99265 1.91211,1.30469 l 0.004,18.14844 -36.74956,10e-4"
       inkscape:connector-curvature="0"
       sodipodi:nodetypes="cccsccccsccccsscccccccccccccsscccccc" />
    <rect
       y="-696.74524"
       x="124.08925"
       height="22.888"
       width="11.5"
       id="rect4219-2-7"
       style="display:inline;opacity:1;fill:#e8f6f7;fill-opacity:1;stroke:none;stroke-width:1;stroke-linecap:butt;stroke-linejoin:miter;stroke-miterlimit:4;stroke-dasharray:none;stroke-opacity:1" />
    <rect
       y="-691.41309"
       x="94.612076"
       height="17.556"
       width="14.621"
       id="rect4209-6-1"
       style="display:inline;opacity:1;fill:#e6e9ed;fill-opacity:1;stroke:none;stroke-width:0.99999994;stroke-linecap:butt;stroke-linejoin:miter;stroke-miterlimit:4;stroke-dasharray:none;stroke-opacity:1" />
    <rect
       style="display:inline;opacity:1;fill:none;fill-opacity:1;stroke:#002049;stroke-width:0.99999994;stroke-linecap:butt;stroke-linejoin:miter;stroke-miterlimit:4;stroke-dasharray:none;stroke-opacity:1"
       id="rect5990-1-3"
       width="14.621"
       height="17.556"
       x="94.612076"
       y="-691.41309" />
    <rect
       style="display:inline;opacity:1;fill:none;fill-opacity:1;stroke:#18a3ac;stroke-width:1;stroke-linecap:butt;stroke-linejoin:miter;stroke-miterlimit:4;stroke-dasharray:none;stroke-opacity:1"
       id="rect5990-5-8-3"
       width="11.5"
       height="22.888"
       x="124.08925"
       y="-696.74524" />
    <rect
       transform="rotate(-45)"
       y="-458.84122"
       x="549.48474"
       height="25.238001"
       width="17.412001"
       id="rect4189-7-3"
       style="display:inline;opacity:1;fill:#e8f4fa;fill-opacity:1;stroke:none;stroke-width:0.99999994;stroke-linecap:butt;stroke-linejoin:miter;stroke-miterlimit:4;stroke-dasharray:none;stroke-opacity:1" />
    <rect
       style="display:inline;opacity:1;fill:none;fill-opacity:1;stroke:#178ccb;stroke-width:0.99999994;stroke-linecap:butt;stroke-linejoin:miter;stroke-miterlimit:4;stroke-dasharray:none;stroke-opacity:1"
       id="rect5990-8-9-8"
       width="17.412001"
       height="25.238001"
       x="549.48474"
       y="-458.84122"
       transform="rotate(-45)" />
    <path
       sodipodi:nodetypes="cccsccccsccccsscccccccccccccsscccccc"
       inkscape:connector-curvature="0"
       d="m 232.20317,-473.96643 -11.57671,0.004 0.004,-20.28751 c 0,-1.38071 -1.11929,-2.5 -2.5,-2.5 -1.38071,0 -2.5,1.11929 -2.5,2.5 l 0.004,20.28751 -7.79906,-1.1e-4 0.004,-13.88751 c 0,-1.38071 -1.11929,-2.5 -2.5,-2.5 -1.38071,0 -2.5,1.11929 -2.5,2.5 l 0.004,13.88751 -22.82335,-7.9e-4 0.002,-3.78321 c 0.85853,-0.36234 1.46093,-1.2127 1.46093,-2.20312 0,-1.31969 -1.06898,-2.38867 -2.38867,-2.38867 -0.15028,0 -0.29686,0.0184 -0.43945,0.0449 l -0.48633,-1.17969 c -0.39629,-0.95668 -1.3168,-1.53766 -2.29102,-1.54492 -0.32474,-0.002 -0.65571,0.0593 -0.97461,0.19141 -1.2756,0.52836 -1.88187,1.99001 -1.35351,3.26562 0.52868,1.27275 1.47656,2.57955 1.47656,4.15469 l 0.004,3.44297 -8.62123,1.8e-4 0.004,-18.14649 c 0.71876,-0.31093 1.37269,-0.75417 1.92773,-1.30664 2.44015,-2.44067 2.44015,-6.39722 0,-8.83789 -1.75797,-1.75686 -4.38983,-2.30516 -6.70312,-1.39648 -3.22568,-3.22718 -8.1201,-8.12286 -10.05273,-10.05664 -0.48816,-0.48816 -1.12777,-0.73243 -1.76758,-0.73243 -0.63981,0 -1.27942,0.24427 -1.76758,0.73243 -0.97631,0.9763 -0.97631,2.55884 0,3.53515 1.93469,1.93354 6.83388,6.83148 10.06055,10.05664 -0.90845,2.31104 -0.36259,4.94068 1.39062,6.69922 0.55057,0.55016 1.19906,0.99265 1.91211,1.30469 l 0.004,18.14844 -36.74956,10e-4"
       style="display:inline;opacity:1;fill:none;fill-opacity:1;stroke:#178ccb;stroke-width:2.5;stroke-linecap:butt;stroke-miterlimit:4;stroke-dasharray:none;stroke-opacity:1"
       id="path4201-2-5"
       clip-path="url(#clipPath4205-3-34)"
       transform="translate(-75.500149,-203.14501)" />
    <path
       sodipodi:nodetypes="cccsccccsccccsscccccccccccccsscccccc"
       inkscape:connector-curvature="0"
       d="m 232.20317,-473.96643 -11.57671,0.004 0.004,-20.28751 c 0,-1.38071 -1.11929,-2.5 -2.5,-2.5 -1.38071,0 -2.5,1.11929 -2.5,2.5 l 0.004,20.28751 -7.79906,-1.1e-4 0.004,-13.88751 c 0,-1.38071 -1.11929,-2.5 -2.5,-2.5 -1.38071,0 -2.5,1.11929 -2.5,2.5 l 0.004,13.88751 -22.82335,-7.9e-4 0.002,-3.78321 c 0.85853,-0.36234 1.46093,-1.2127 1.46093,-2.20312 0,-1.31969 -1.06898,-2.38867 -2.38867,-2.38867 -0.15028,0 -0.29686,0.0184 -0.43945,0.0449 l -0.48633,-1.17969 c -0.39629,-0.95668 -1.3168,-1.53766 -2.29102,-1.54492 -0.32474,-0.002 -0.65571,0.0593 -0.97461,0.19141 -1.2756,0.52836 -1.88187,1.99001 -1.35351,3.26562 0.52868,1.27275 1.47656,2.57955 1.47656,4.15469 l 0.004,3.44297 -8.62123,1.8e-4 0.004,-18.14649 c 0.71876,-0.31093 1.37269,-0.75417 1.92773,-1.30664 2.44015,-2.44067 2.44015,-6.39722 0,-8.83789 -1.75797,-1.75686 -4.38983,-2.30516 -6.70312,-1.39648 -3.22568,-3.22718 -8.1201,-8.12286 -10.05273,-10.05664 -0.48816,-0.48816 -1.12777,-0.73243 -1.76758,-0.73243 -0.63981,0 -1.27942,0.24427 -1.76758,0.73243 -0.97631,0.9763 -0.97631,2.55884 0,3.53515 1.93469,1.93354 6.83388,6.83148 10.06055,10.05664 -0.90845,2.31104 -0.36259,4.94068 1.39062,6.69922 0.55057,0.55016 1.19906,0.99265 1.91211,1.30469 l 0.004,18.14844 -36.74956,10e-4"
       style="display:inline;opacity:1;fill:none;fill-opacity:1;stroke:#002049;stroke-width:2.5;stroke-linecap:butt;stroke-miterlimit:4;stroke-dasharray:none;stroke-opacity:1"
       id="path4211-0-1"
       clip-path="url(#clipPath4215-7-6)"
       transform="translate(-75.500149,-203.14501)" />
    <path
       sodipodi:nodetypes="cccsccccsccccsscccccccccccccsscccccc"
       inkscape:connector-curvature="0"
       d="m 232.20317,-473.96643 -11.57671,0.004 0.004,-20.28751 c 0,-1.38071 -1.11929,-2.5 -2.5,-2.5 -1.38071,0 -2.5,1.11929 -2.5,2.5 l 0.004,20.28751 -7.79906,-1.1e-4 0.004,-13.88751 c 0,-1.38071 -1.11929,-2.5 -2.5,-2.5 -1.38071,0 -2.5,1.11929 -2.5,2.5 l 0.004,13.88751 -22.82335,-7.9e-4 0.002,-3.78321 c 0.85853,-0.36234 1.46093,-1.2127 1.46093,-2.20312 0,-1.31969 -1.06898,-2.38867 -2.38867,-2.38867 -0.15028,0 -0.29686,0.0184 -0.43945,0.0449 l -0.48633,-1.17969 c -0.39629,-0.95668 -1.3168,-1.53766 -2.29102,-1.54492 -0.32474,-0.002 -0.65571,0.0593 -0.97461,0.19141 -1.2756,0.52836 -1.88187,1.99001 -1.35351,3.26562 0.52868,1.27275 1.47656,2.57955 1.47656,4.15469 l 0.004,3.44297 -8.62123,1.8e-4 0.004,-18.14649 c 0.71876,-0.31093 1.37269,-0.75417 1.92773,-1.30664 2.44015,-2.44067 2.44015,-6.39722 0,-8.83789 -1.75797,-1.75686 -4.38983,-2.30516 -6.70312,-1.39648 -3.22568,-3.22718 -8.1201,-8.12286 -10.05273,-10.05664 -0.48816,-0.48816 -1.12777,-0.73243 -1.76758,-0.73243 -0.63981,0 -1.27942,0.24427 -1.76758,0.73243 -0.97631,0.9763 -0.97631,2.55884 0,3.53515 1.93469,1.93354 6.83388,6.83148 10.06055,10.05664 -0.90845,2.31104 -0.36259,4.94068 1.39062,6.69922 0.55057,0.55016 1.19906,0.99265 1.91211,1.30469 l 0.004,18.14844 -36.74956,10e-4"
       style="display:inline;opacity:1;fill:none;fill-opacity:1;stroke:#18a3ac;stroke-width:2.5;stroke-linecap:butt;stroke-miterlimit:4;stroke-dasharray:none;stroke-opacity:1"
       id="path4221-2-0"
       clip-path="url(#clipPath4225-3-34)"
       transform="translate(-75.500149,-203.14501)" />
    <g
       id="g2166"
       transform="translate(45.133929)">
      <g
         transform="translate(-65.882212,-801.29932)"
         id="g2623"
         style="display:inline">
        <text
           xml:space="preserve"
           style="color:#000000;font-style:normal;font-variant:normal;font-weight:300;font-stretch:normal;font-size:12px;line-height:0%;font-family:Roboto;-inkscape-font-specification:'Roboto, Light';text-indent:0;text-align:start;text-decoration:none;text-decoration-line:none;letter-spacing:0px;word-spacing:0px;text-transform:none;writing-mode:lr-tb;direction:ltr;baseline-shift:baseline;text-anchor:start;display:inline;overflow:visible;visibility:visible;fill:#002049;fill-opacity:1;fill-rule:nonzero;stroke:none;stroke-width:1px;stroke-linecap:butt;stroke-linejoin:miter;stroke-opacity:1;marker:none;enable-background:accumulate"
           x="111.75874"
           y="317.91461"
           id="text4464-3-6-9-6"><tspan
             sodipodi:role="line"
             id="tspan4466-2-2-7-2"
             x="111.75874"
             y="317.91461"
             style="font-style:normal;font-variant:normal;font-weight:normal;font-stretch:normal;font-size:12.50000095px;line-height:1.10000002;font-family:'Liberation Sans';-inkscape-font-specification:'Liberation Sans';fill:#002049;stroke-width:1px">nexus</tspan></text>
        <text
           xml:space="preserve"
           style="color:#000000;font-style:normal;font-variant:normal;font-weight:normal;font-stretch:normal;font-size:12px;line-height:0%;font-family:'Liberation Sans';-inkscape-font-specification:'Liberation Sans, Normal';text-indent:0;text-align:end;text-decoration:none;text-decoration-line:none;letter-spacing:0px;word-spacing:0px;text-transform:none;writing-mode:lr-tb;direction:ltr;baseline-shift:baseline;text-anchor:end;display:inline;overflow:visible;visibility:visible;fill:#178ccb;fill-opacity:1;fill-rule:nonzero;stroke:none;stroke-width:1px;stroke-linecap:butt;stroke-linejoin:miter;stroke-opacity:1;marker:none;enable-background:accumulate"
           x="89.542023"
           y="273.07532"
           id="text4476-4-9-2-9"><tspan
             style="font-size:12.50000095px;line-height:1.10000002;stroke-width:1px"
             sodipodi:role="line"
             x="89.542023"
             y="273.07532"
             id="tspan4480-3-1-5-1">upper</tspan><tspan
             style="font-size:12.50000095px;line-height:1.10000002;stroke-width:1px"
             sodipodi:role="line"
             x="89.542023"
             y="286.82532"
             id="tspan4484-9-2-8-2">stem</tspan></text>
        <path
           style="fill:none;fill-rule:evenodd;stroke:#178ccb;stroke-width:1px;stroke-linecap:butt;stroke-linejoin:miter;stroke-opacity:1"
           d="m 91.200696,276.13174 11.026784,-8.30356"
           id="path4540-7-9-7"
           inkscape:connector-curvature="0"
           sodipodi:nodetypes="cc" />
        <text
           xml:space="preserve"
           style="color:#000000;font-style:normal;font-variant:normal;font-weight:normal;font-stretch:normal;font-size:12px;line-height:0%;font-family:'Liberation Sans';-inkscape-font-specification:'Liberation Sans, Normal';text-indent:0;text-align:start;text-decoration:none;text-decoration-line:none;letter-spacing:0px;word-spacing:0px;text-transform:none;writing-mode:lr-tb;direction:ltr;baseline-shift:baseline;text-anchor:start;display:inline;overflow:visible;visibility:visible;fill:#18a3ac;fill-opacity:1;fill-rule:nonzero;stroke:none;stroke-width:1px;stroke-linecap:butt;stroke-linejoin:miter;stroke-opacity:1;marker:none;enable-background:accumulate"
           x="138.05511"
           y="266.5907"
           id="text4472-9-9-2-0"><tspan
             sodipodi:role="line"
             id="tspan4474-5-3-4-9"
             x="138.05511"
             y="266.5907"
             style="font-size:12.50000095px;line-height:1.10000002;stroke-width:1px">hairpin</tspan></text>
        <path
           style="fill:none;fill-rule:evenodd;stroke:#18a3ac;stroke-width:1px;stroke-linecap:butt;stroke-linejoin:miter;stroke-opacity:1"
           d="m 156.74275,269.50768 1.60715,11.07143"
           id="path4557-6-7-3"
           inkscape:connector-curvature="0" />
        <path
           style="fill:none;fill-rule:evenodd;stroke:#002049;stroke-width:1px;stroke-linecap:butt;stroke-linejoin:miter;stroke-opacity:1"
           d="m 129.59356,308.00674 0.71428,-7.58928"
           id="path4559-0-6-6"
           inkscape:connector-curvature="0" />
        <path
           id="path6485-6-5-0"
           style="display:inline;opacity:1;fill:none;fill-opacity:1;stroke:#f48024;stroke-width:2.50031257;stroke-linecap:butt;stroke-miterlimit:4;stroke-dasharray:none;stroke-opacity:1"
           d="m 185.40261,297.11521 -11.57671,0.004 0.004,-20.28751 c 0,-1.38071 -1.11929,-2.5 -2.5,-2.5 -1.38071,0 -2.5,1.11929 -2.5,2.5 l 0.004,20.28751 -7.79907,-1.1e-4 0.004,-13.88751 c 0,-1.38071 -1.11929,-2.5 -2.5,-2.5 -1.38071,0 -2.49999,1.11929 -2.49999,2.5 l 0.004,13.88751 -22.82334,-7.9e-4 0.002,-3.78321 c 0.85853,-0.36234 1.46093,-1.2127 1.46093,-2.20312 0,-1.31969 -1.06898,-2.38867 -2.38867,-2.38867 -0.15028,0 -0.29686,0.0184 -0.43945,0.0449 l -0.48633,-1.17969 c -0.39629,-0.95668 -1.3168,-1.53766 -2.29102,-1.54492 -0.32474,-0.002 -0.65571,0.0593 -0.97461,0.19141 -1.2756,0.52836 -1.88187,1.99002 -1.35351,3.26562 0.52868,1.27275 1.47656,2.57955 1.47656,4.1547 l 0.004,3.44297 -8.62123,1.8e-4 0.004,-18.14649 c 0.71876,-0.31093 1.37269,-0.75417 1.92773,-1.30665 2.44015,-2.44066 2.44015,-6.39721 0,-8.83789 -1.75699,-1.75688 -4.38885,-2.30518 -6.70215,-1.3965 -3.22568,-3.22718 -8.1201,-8.12286 -10.05273,-10.05664 -0.48816,-0.48816 -1.12777,-0.73243 -1.76758,-0.73243 -0.63981,0 -1.27942,0.24427 -1.76758,0.73243 -0.97631,0.97629 -0.97631,2.55884 0,3.53515 1.93469,1.93354 6.83388,6.83148 10.06055,10.05664 -0.90844,2.31104 -0.36259,4.94068 1.39062,6.69922 0.55057,0.55016 1.19907,0.99265 1.91211,1.30469 l 0.004,18.14844 -36.749557,10e-4"
           inkscape:connector-curvature="0"
           sodipodi:nodetypes="cccsccccsccccsscccccccccccccsscccccc" />
        <rect
           y="277.48145"
           x="152.78885"
           height="22.888"
           width="11.500001"
           id="rect4219-2-7-6"
           style="display:inline;opacity:1;fill:#e8f6f7;fill-opacity:1;stroke:none;stroke-width:1;stroke-linecap:butt;stroke-linejoin:miter;stroke-miterlimit:4;stroke-dasharray:none;stroke-opacity:1" />
        <rect
           y="282.8136"
           x="123.31168"
           height="17.556"
           width="14.621001"
           id="rect4209-6-1-2"
           style="display:inline;opacity:1;fill:#e6e9ed;fill-opacity:1;stroke:none;stroke-width:0.99999994;stroke-linecap:butt;stroke-linejoin:miter;stroke-miterlimit:4;stroke-dasharray:none;stroke-opacity:1" />
        <rect
           style="display:inline;opacity:1;fill:none;fill-opacity:1;stroke:#002049;stroke-width:0.99999994;stroke-linecap:butt;stroke-linejoin:miter;stroke-miterlimit:4;stroke-dasharray:none;stroke-opacity:1"
           id="rect5990-1-3-6"
           width="14.621001"
           height="17.556"
           x="123.31168"
           y="282.8136" />
        <rect
           style="display:inline;opacity:1;fill:none;fill-opacity:1;stroke:#18a3ac;stroke-width:1;stroke-linecap:butt;stroke-linejoin:miter;stroke-miterlimit:4;stroke-dasharray:none;stroke-opacity:1"
           id="rect5990-5-8-3-1"
           width="11.500001"
           height="22.888"
           x="152.78885"
           y="277.48145" />
        <rect
           transform="rotate(-45)"
           y="250.33478"
           x="-119.10388"
           height="25.238001"
           width="17.411999"
           id="rect4189-7-3-8"
           style="display:inline;opacity:1;fill:#e8f4fa;fill-opacity:1;stroke:none;stroke-width:0.99999994;stroke-linecap:butt;stroke-linejoin:miter;stroke-miterlimit:4;stroke-dasharray:none;stroke-opacity:1" />
        <rect
           style="display:inline;opacity:1;fill:none;fill-opacity:1;stroke:#178ccb;stroke-width:0.99999994;stroke-linecap:butt;stroke-linejoin:miter;stroke-miterlimit:4;stroke-dasharray:none;stroke-opacity:1"
           id="rect5990-8-9-8-7"
           width="17.411999"
           height="25.238001"
           x="-119.10388"
           y="250.33478"
           transform="rotate(-45)" />
        <path
           sodipodi:nodetypes="cccsccccsccccsscccccccccccccsscccccc"
           inkscape:connector-curvature="0"
           d="m 232.20317,-473.96643 -11.57671,0.004 0.004,-20.28751 c 0,-1.38071 -1.11929,-2.5 -2.5,-2.5 -1.38071,0 -2.5,1.11929 -2.5,2.5 l 0.004,20.28751 -7.79906,-1.1e-4 0.004,-13.88751 c 0,-1.38071 -1.11929,-2.5 -2.5,-2.5 -1.38071,0 -2.5,1.11929 -2.5,2.5 l 0.004,13.88751 -22.82335,-7.9e-4 0.002,-3.78321 c 0.85853,-0.36234 1.46093,-1.2127 1.46093,-2.20312 0,-1.31969 -1.06898,-2.38867 -2.38867,-2.38867 -0.15028,0 -0.29686,0.0184 -0.43945,0.0449 l -0.48633,-1.17969 c -0.39629,-0.95668 -1.3168,-1.53766 -2.29102,-1.54492 -0.32474,-0.002 -0.65571,0.0593 -0.97461,0.19141 -1.2756,0.52836 -1.88187,1.99001 -1.35351,3.26562 0.52868,1.27275 1.47656,2.57955 1.47656,4.15469 l 0.004,3.44297 -8.62123,1.8e-4 0.004,-18.14649 c 0.71876,-0.31093 1.37269,-0.75417 1.92773,-1.30664 2.44015,-2.44067 2.44015,-6.39722 0,-8.83789 -1.75797,-1.75686 -4.38983,-2.30516 -6.70312,-1.39648 -3.22568,-3.22718 -8.1201,-8.12286 -10.05273,-10.05664 -0.48816,-0.48816 -1.12777,-0.73243 -1.76758,-0.73243 -0.63981,0 -1.27942,0.24427 -1.76758,0.73243 -0.97631,0.9763 -0.97631,2.55884 0,3.53515 1.93469,1.93354 6.83388,6.83148 10.06055,10.05664 -0.90845,2.31104 -0.36259,4.94068 1.39062,6.69922 0.55057,0.55016 1.19906,0.99265 1.91211,1.30469 l 0.004,18.14844 -36.74956,10e-4"
           style="display:inline;opacity:1;fill:none;fill-opacity:1;stroke:#178ccb;stroke-width:2.5;stroke-linecap:butt;stroke-miterlimit:4;stroke-dasharray:none;stroke-opacity:1"
           id="path4201-2-5-9"
           clip-path="url(#clipPath4205-3-34-3)"
           transform="translate(-46.800556,771.08168)" />
        <path
           sodipodi:nodetypes="cccsccccsccccsscccccccccccccsscccccc"
           inkscape:connector-curvature="0"
           d="m 232.20317,-473.96643 -11.57671,0.004 0.004,-20.28751 c 0,-1.38071 -1.11929,-2.5 -2.5,-2.5 -1.38071,0 -2.5,1.11929 -2.5,2.5 l 0.004,20.28751 -7.79906,-1.1e-4 0.004,-13.88751 c 0,-1.38071 -1.11929,-2.5 -2.5,-2.5 -1.38071,0 -2.5,1.11929 -2.5,2.5 l 0.004,13.88751 -22.82335,-7.9e-4 0.002,-3.78321 c 0.85853,-0.36234 1.46093,-1.2127 1.46093,-2.20312 0,-1.31969 -1.06898,-2.38867 -2.38867,-2.38867 -0.15028,0 -0.29686,0.0184 -0.43945,0.0449 l -0.48633,-1.17969 c -0.39629,-0.95668 -1.3168,-1.53766 -2.29102,-1.54492 -0.32474,-0.002 -0.65571,0.0593 -0.97461,0.19141 -1.2756,0.52836 -1.88187,1.99001 -1.35351,3.26562 0.52868,1.27275 1.47656,2.57955 1.47656,4.15469 l 0.004,3.44297 -8.62123,1.8e-4 0.004,-18.14649 c 0.71876,-0.31093 1.37269,-0.75417 1.92773,-1.30664 2.44015,-2.44067 2.44015,-6.39722 0,-8.83789 -1.75797,-1.75686 -4.38983,-2.30516 -6.70312,-1.39648 -3.22568,-3.22718 -8.1201,-8.12286 -10.05273,-10.05664 -0.48816,-0.48816 -1.12777,-0.73243 -1.76758,-0.73243 -0.63981,0 -1.27942,0.24427 -1.76758,0.73243 -0.97631,0.9763 -0.97631,2.55884 0,3.53515 1.93469,1.93354 6.83388,6.83148 10.06055,10.05664 -0.90845,2.31104 -0.36259,4.94068 1.39062,6.69922 0.55057,0.55016 1.19906,0.99265 1.91211,1.30469 l 0.004,18.14844 -36.74956,10e-4"
           style="display:inline;opacity:1;fill:none;fill-opacity:1;stroke:#002049;stroke-width:2.5;stroke-linecap:butt;stroke-miterlimit:4;stroke-dasharray:none;stroke-opacity:1"
           id="path4211-0-1-2"
           clip-path="url(#clipPath4215-7-6-7)"
           transform="translate(-46.800556,771.08168)" />
        <path
           sodipodi:nodetypes="cccsccccsccccsscccccccccccccsscccccc"
           inkscape:connector-curvature="0"
           d="m 232.20317,-473.96643 -11.57671,0.004 0.004,-20.28751 c 0,-1.38071 -1.11929,-2.5 -2.5,-2.5 -1.38071,0 -2.5,1.11929 -2.5,2.5 l 0.004,20.28751 -7.79906,-1.1e-4 0.004,-13.88751 c 0,-1.38071 -1.11929,-2.5 -2.5,-2.5 -1.38071,0 -2.5,1.11929 -2.5,2.5 l 0.004,13.88751 -22.82335,-7.9e-4 0.002,-3.78321 c 0.85853,-0.36234 1.46093,-1.2127 1.46093,-2.20312 0,-1.31969 -1.06898,-2.38867 -2.38867,-2.38867 -0.15028,0 -0.29686,0.0184 -0.43945,0.0449 l -0.48633,-1.17969 c -0.39629,-0.95668 -1.3168,-1.53766 -2.29102,-1.54492 -0.32474,-0.002 -0.65571,0.0593 -0.97461,0.19141 -1.2756,0.52836 -1.88187,1.99001 -1.35351,3.26562 0.52868,1.27275 1.47656,2.57955 1.47656,4.15469 l 0.004,3.44297 -8.62123,1.8e-4 0.004,-18.14649 c 0.71876,-0.31093 1.37269,-0.75417 1.92773,-1.30664 2.44015,-2.44067 2.44015,-6.39722 0,-8.83789 -1.75797,-1.75686 -4.38983,-2.30516 -6.70312,-1.39648 -3.22568,-3.22718 -8.1201,-8.12286 -10.05273,-10.05664 -0.48816,-0.48816 -1.12777,-0.73243 -1.76758,-0.73243 -0.63981,0 -1.27942,0.24427 -1.76758,0.73243 -0.97631,0.9763 -0.97631,2.55884 0,3.53515 1.93469,1.93354 6.83388,6.83148 10.06055,10.05664 -0.90845,2.31104 -0.36259,4.94068 1.39062,6.69922 0.55057,0.55016 1.19906,0.99265 1.91211,1.30469 l 0.004,18.14844 -36.74956,10e-4"
           style="display:inline;opacity:1;fill:none;fill-opacity:1;stroke:#18a3ac;stroke-width:2.5;stroke-linecap:butt;stroke-miterlimit:4;stroke-dasharray:none;stroke-opacity:1"
           id="path4221-2-0-0"
           clip-path="url(#clipPath4225-3-34-3)"
           transform="translate(-46.800556,771.08168)" />
      </g>
      <text
         xml:space="preserve"
         style="color:#000000;font-style:normal;font-variant:normal;font-weight:normal;font-stretch:normal;font-size:12.50000191px;line-height:100%;font-family:'Liberation Sans';-inkscape-font-specification:'Liberation Sans, Normal';font-variant-ligatures:normal;font-variant-caps:normal;font-variant-numeric:normal;font-feature-settings:normal;text-indent:0;text-align:start;text-decoration:none;text-decoration-line:none;letter-spacing:0px;word-spacing:0px;text-transform:none;writing-mode:lr-tb;direction:ltr;baseline-shift:baseline;text-anchor:start;display:inline;overflow:visible;visibility:visible;fill:#000000;fill-opacity:1;fill-rule:nonzero;stroke:none;stroke-width:0.9375px;stroke-linecap:butt;stroke-linejoin:miter;stroke-opacity:1;marker:none;enable-background:accumulate"
         x="-21.872427"
         y="-561.20654"
         id="text1987-6"><tspan
           sodipodi:role="line"
           x="-21.872427"
           y="-561.20654"
           style="text-align:start;text-anchor:start;stroke-width:0.9375px"
           id="tspan1985-8">c. Insertion sites</tspan></text>
      <text
         xml:space="preserve"
         style="color:#000000;font-style:normal;font-variant:normal;font-weight:normal;font-stretch:normal;font-size:12.50000191px;line-height:100%;font-family:'Liberation Sans';-inkscape-font-specification:'Liberation Sans, Normal';font-variant-ligatures:normal;font-variant-caps:normal;font-variant-numeric:normal;font-feature-settings:normal;text-indent:0;text-align:start;text-decoration:none;text-decoration-line:none;letter-spacing:0px;word-spacing:0px;text-transform:none;writing-mode:lr-tb;direction:ltr;baseline-shift:baseline;text-anchor:start;display:inline;overflow:visible;visibility:visible;fill:#000000;fill-opacity:1;fill-rule:nonzero;stroke:none;stroke-width:0.9375px;stroke-linecap:butt;stroke-linejoin:miter;stroke-opacity:1;marker:none;enable-background:accumulate"
         x="149.49597"
         y="-561.20654"
         id="text1987-6-5"><tspan
           sodipodi:role="line"
           x="149.49597"
           y="-561.20654"
           style="text-align:start;text-anchor:start;stroke-width:0.9375px"
           id="tspan1985-8-6">d. Linking strategies</tspan></text>
      <g
         transform="translate(-8.3464999,-767.08058)"
         id="g5477"
         style="display:inline">
        <g
           id="g4228"
           transform="translate(-141.53842,-203.92414)">
          <path
             inkscape:connector-curvature="0"
             id="path6794-5"
             d="m 324.98883,478.15426 -2.28841,2.84645 -3.6309,-0.3946 -1.34248,-3.24103 2.28842,-2.84645 3.63089,0.3946 z"
             style="display:inline;opacity:1;fill:none;fill-opacity:1;stroke:#716fb2;stroke-width:2;stroke-linecap:butt;stroke-miterlimit:4;stroke-dasharray:none;stroke-opacity:1" />
          <path
             id="path4413-1-7"
             style="display:inline;opacity:1;fill:none;fill-opacity:1;stroke:#f48024;stroke-width:2.5;stroke-linecap:butt;stroke-miterlimit:4;stroke-dasharray:none;stroke-opacity:1"
             d="m 321.15348,484.46043 -0.004,-12.90001 c 0,-1.38071 1.11929,-2.5 2.5,-2.5 1.38071,0 2.5,1.11929 2.5,2.5 l -0.004,12.90001"
             inkscape:connector-curvature="0"
             sodipodi:nodetypes="ccscc" />
          <path
             id="path6800-47"
             style="display:inline;opacity:1;fill:none;fill-opacity:1;stroke:#716fb2;stroke-width:2;stroke-linecap:butt;stroke-miterlimit:4;stroke-dasharray:none;stroke-opacity:1"
             d="m 324.98883,478.15426 -1.41685,1.76235 m 5.98674,-5.55381 -0.91955,3.44236 -3.65262,0.34359 -1.33792,-3.23002 2.82575,-2.33984 z"
             inkscape:connector-curvature="0" />
        </g>
        <g
           id="g4474"
           transform="translate(-140.50211,-204.50718)">
          <g
             id="g4228-7-9"
             style="display:inline"
             transform="translate(87.91302,0.58311617)">
            <path
               style="display:inline;opacity:1;fill:none;fill-opacity:1;stroke:#716fb2;stroke-width:2;stroke-linecap:butt;stroke-miterlimit:4;stroke-dasharray:none;stroke-opacity:1"
               d="m 324.98883,478.15426 -2.28841,2.84645 -3.6309,-0.3946 -1.34248,-3.24103 2.28842,-2.84645 3.63089,0.3946 z"
               id="path6794-5-6-3"
               inkscape:connector-curvature="0" />
            <path
               sodipodi:nodetypes="cccc"
               inkscape:connector-curvature="0"
               d="m 321.15348,484.46043 -0.004,-15.71251 m 5,0 -0.004,15.71251"
               style="display:inline;opacity:1;fill:none;fill-opacity:1;stroke:#f48024;stroke-width:2.5;stroke-linecap:butt;stroke-miterlimit:4;stroke-dasharray:none;stroke-opacity:1"
               id="path4413-1-7-7-9" />
            <path
               inkscape:connector-curvature="0"
               d="m 324.98883,478.15426 -1.41685,1.76235 m 5.98674,-5.55381 -0.91955,3.44236 -3.65262,0.34359 -1.33792,-3.23002 2.82575,-2.33984 z"
               style="display:inline;opacity:1;fill:none;fill-opacity:1;stroke:#716fb2;stroke-width:2;stroke-linecap:butt;stroke-miterlimit:4;stroke-dasharray:none;stroke-opacity:1"
               id="path6800-47-3-0" />
          </g>
        </g>
        <g
           id="g4397"
           transform="translate(-152.23307,-204.24776)">
          <path
             inkscape:connector-curvature="0"
             id="path6794-5-6"
             d="m 375.22206,478.47786 -2.28841,2.84645 -3.6309,-0.3946 -1.34248,-3.24103 2.28842,-2.84645 3.63089,0.3946 z"
             style="display:inline;opacity:1;fill:none;fill-opacity:1;stroke:#716fb2;stroke-width:2;stroke-linecap:butt;stroke-miterlimit:4;stroke-dasharray:none;stroke-opacity:1" />
          <path
             sodipodi:nodetypes="ccsccc"
             inkscape:connector-curvature="0"
             d="m 371.38671,484.78403 -0.004,-12.90001 c 0,-1.38071 1.11929,-2.5 2.5,-2.5 1.38071,0 2.5,1.11929 2.5,2.5 l -0.004,11.65027 h 14.44924"
             style="color:#000000;clip-rule:nonzero;display:inline;overflow:visible;visibility:visible;opacity:1;isolation:auto;mix-blend-mode:normal;color-interpolation:sRGB;color-interpolation-filters:linearRGB;solid-color:#000000;solid-opacity:1;fill:none;fill-opacity:1;fill-rule:evenodd;stroke:#f48024;stroke-width:2.50031257;stroke-linecap:butt;stroke-linejoin:miter;stroke-miterlimit:4;stroke-dasharray:none;stroke-dashoffset:0;stroke-opacity:1;color-rendering:auto;image-rendering:auto;shape-rendering:auto;text-rendering:auto;enable-background:accumulate"
             id="path4384" />
          <path
             id="path6800-47-3"
             style="display:inline;opacity:1;fill:none;fill-opacity:1;stroke:#716fb2;stroke-width:2;stroke-linecap:butt;stroke-miterlimit:4;stroke-dasharray:none;stroke-opacity:1"
             d="m 375.22206,478.47786 -1.41685,1.76235 m 5.98674,-5.55381 -0.91955,3.44236 -3.65262,0.34359 -1.33792,-3.23002 2.82575,-2.33984 z"
             inkscape:connector-curvature="0" />
        </g>
        <path
           style="display:inline;opacity:1;fill:none;fill-opacity:1;stroke:#f48024;stroke-width:2.5;stroke-linecap:butt;stroke-linejoin:miter;stroke-miterlimit:4;stroke-dasharray:none;stroke-dashoffset:0;stroke-opacity:1"
           d="m 173.66405,232.12618 c 1.22687,-1.28644 1.40957,-1.88578 0.90097,-3.60882 -0.50121,-1.69801 0.60133,-3.04379 2.36462,-2.90618 1.79676,0.14022 2.38183,-0.19944 3.32093,-1.69619 0.46003,-0.73321 1.14622,-1.13185 1.86049,-1.13966 0.7143,0.008 1.40051,0.40644 1.86056,1.13968 0.93908,1.49676 1.52415,1.83642 3.32091,1.69621 1.76329,-0.1376 2.86582,1.20819 2.3646,2.9062 -0.50861,1.72303 -0.32592,2.32238 0.90093,3.60881"
           id="path5099-6-7"
           inkscape:connector-curvature="0"
           sodipodi:nodetypes="csccccccc" />
        <g
           id="g4388"
           transform="translate(-142.11261,-207.34017)">
          <path
             id="path4359"
             style="color:#000000;clip-rule:nonzero;display:inline;overflow:visible;visibility:visible;opacity:1;isolation:auto;mix-blend-mode:normal;color-interpolation:sRGB;color-interpolation-filters:linearRGB;solid-color:#000000;solid-opacity:1;fill:none;fill-opacity:1;fill-rule:evenodd;stroke:#f48024;stroke-width:2.50031257;stroke-linecap:butt;stroke-linejoin:miter;stroke-miterlimit:4;stroke-dasharray:none;stroke-dashoffset:0;stroke-opacity:1;color-rendering:auto;image-rendering:auto;shape-rendering:auto;text-rendering:auto;enable-background:accumulate"
             d="m 358.35064,439.07893 h 14.44923 l -0.004,-10.71277 c 0,-1.38071 1.11929,-2.5 2.5,-2.5 1.38072,0 2.5,1.11929 2.5,2.5 l -0.004,11.96251"
             inkscape:connector-curvature="0"
             sodipodi:nodetypes="cccscc" />
        </g>
        <g
           id="g4478"
           transform="translate(-1.6406203,-11.038703)">
          <path
             sodipodi:nodetypes="csssc"
             id="path16810-8"
             title="sin(x)"
             d="m 265.11901,233.61097 c 1.26367,-1.20515 2.52733,-1.20515 3.791,0 1.26367,1.20515 2.52733,1.20515 3.791,0 1.26367,-1.20515 2.52733,-1.20515 3.791,0 1.26367,1.20515 2.52733,1.20515 3.791,0"
             style="display:inline;opacity:1;fill:none;fill-opacity:1;stroke:#f48024;stroke-width:2.5;stroke-linecap:butt;stroke-linejoin:miter;stroke-miterlimit:4;stroke-dasharray:none;stroke-dashoffset:0;stroke-opacity:1"
             inkscape:connector-curvature="0" />
          <path
             sodipodi:nodetypes="csssc"
             id="path16810-8-5"
             title="sin(x)"
             d="m 265.11901,241.87376 c 1.26367,-1.20515 2.52733,-1.20515 3.791,0 1.26367,1.20515 2.52733,1.20515 3.791,0 1.26367,-1.20515 2.52733,-1.20515 3.791,0 1.26367,1.20515 2.52733,1.20515 3.791,0"
             style="display:inline;opacity:1;fill:none;fill-opacity:1;stroke:#f48024;stroke-width:2.5;stroke-linecap:butt;stroke-linejoin:miter;stroke-miterlimit:4;stroke-dasharray:none;stroke-dashoffset:0;stroke-opacity:1"
             inkscape:connector-curvature="0" />
        </g>
        <path
           sodipodi:nodetypes="cc"
           style="display:inline;fill:none;fill-rule:evenodd;stroke:#000000;stroke-width:1.5;stroke-linecap:butt;stroke-linejoin:miter;stroke-miterlimit:4;stroke-dasharray:none;stroke-opacity:1;marker-end:url(#marker4482-1)"
           d="m 182.11106,237.86339 v 18.1924"
           id="path1977-5"
           inkscape:connector-curvature="0" />
        <path
           inkscape:connector-curvature="0"
           id="path5355"
           d="m 226.58572,237.86339 v 18.1924"
           style="display:inline;fill:none;fill-rule:evenodd;stroke:#000000;stroke-width:1.5;stroke-linecap:butt;stroke-linejoin:miter;stroke-miterlimit:4;stroke-dasharray:none;stroke-opacity:1;marker-end:url(#marker5359)"
           sodipodi:nodetypes="cc" />
        <path
           sodipodi:nodetypes="cc"
           style="display:inline;fill:none;fill-rule:evenodd;stroke:#000000;stroke-width:1.5;stroke-linecap:butt;stroke-linejoin:miter;stroke-miterlimit:4;stroke-dasharray:none;stroke-opacity:1;marker-end:url(#marker5411)"
           d="m 271.06039,237.86339 v 18.1924"
           id="path5407"
           inkscape:connector-curvature="0" />
      </g>
    </g>
  </g>
</svg>
